HIERARCHY
ROOT hip
{
	OFFSET	0.00  0.00  0.00 
	CHANNELS 6 Xposition Yposition Zposition Xrotation Zrotation Yrotation
	JOINT abdomen
	{
		OFFSET	0.000000 0.000000 0.000000
		CHANNELS 3 Xrotation Zrotation Yrotation
		JOINT chest
		{
			OFFSET	0.000000 5.018152 -1.882228
			CHANNELS 3 Xrotation Zrotation Yrotation
			JOINT neckDummy
			{
				OFFSET	0.000000 8.316447 0.784897
				CHANNELS 3 Xrotation Yrotation Zrotation
				JOINT neck
				{
					OFFSET	0.000000 2.280413 -0.392801
					CHANNELS 3 Xrotation Zrotation Yrotation
					JOINT head
					{
						OFFSET	0.000000 3.496879 0.529469
						CHANNELS 3 Xrotation Zrotation Yrotation
						JOINT figureHair
						{
							OFFSET	0.000000 4.699570 0.720622
							CHANNELS 3 Zrotation Yrotation Xrotation
							End Site
							{
								OFFSET 0.000000 -6.419331 0.000000
							}
						}
					}
				}
			}
			JOINT lCollar
			{
				OFFSET	0.599237 8.316447 0.784897
				CHANNELS 3 Yrotation Zrotation Xrotation
				JOINT lShldr
				{
					OFFSET	6.421198 0.010146 -0.332128
					CHANNELS 3 Zrotation Yrotation Xrotation
					JOINT lForeArm
					{
						OFFSET	10.552783 0.025574 0.125508
						CHANNELS 3 Yrotation Zrotation Xrotation
						JOINT lHand
						{
							OFFSET	11.035963 0.319619 0.041520
							CHANNELS 3 Zrotation Yrotation Xrotation
							End Site
							{
								OFFSET 10.353753 0.000000 0.000000
							}
						}
					}
				}
			}
			JOINT rCollar
			{
				OFFSET	-0.599237 8.316447 0.784897
				CHANNELS 3 Yrotation Zrotation Xrotation
				JOINT rShldr
				{
					OFFSET	-6.421198 0.010146 -0.332128
					CHANNELS 3 Zrotation Yrotation Xrotation
					JOINT rForeArm
					{
						OFFSET	-10.552783 0.025574 0.125508
						CHANNELS 3 Yrotation Zrotation Xrotation
						JOINT rHand
						{
							OFFSET	-11.035963 0.319619 0.041520
							CHANNELS 3 Zrotation Yrotation Xrotation
							End Site
							{
								OFFSET -10.353753 0.000000 0.000000
							}
						}
					}
				}
			}
		}
	}
	JOINT lThigh
	{
		OFFSET	4.500466 -6.400484 -1.832696
		CHANNELS 3 Xrotation Zrotation Yrotation
		JOINT lShin
		{
			OFFSET	-1.359117 -18.918689 1.179887
			CHANNELS 3 Xrotation Zrotation Yrotation
			JOINT lFoot
			{
				OFFSET	-0.652380 -17.215186 -0.312137
				CHANNELS 3 Xrotation Yrotation Zrotation
				End Site
				{
					OFFSET 0.000000 0.000000 10.353752
				}
			}
		}
	}
	JOINT rThigh
	{
		OFFSET	-4.500466 -6.400484 -1.832696
		CHANNELS 3 Xrotation Zrotation Yrotation
		JOINT rShin
		{
			OFFSET	1.359117 -18.918689 1.179887
			CHANNELS 3 Xrotation Zrotation Yrotation
			JOINT rFoot
			{
				OFFSET	0.652380 -17.215186 -0.312137
				CHANNELS 3 Xrotation Yrotation Zrotation
				End Site
				{
					OFFSET 0.000000 0.000000 10.353752
				}
			}
		}
	}
}
MOTION
Frames:     18
Frame Time: 0.050000
-4.099305 40.719246 -2.916025 0.055861 -1.242908 -103.088036 9.182105 3.212312 -23.379873 -5.121832 -3.545487 -2.441151 0.000000 0.000000 0.000000 4.671030 8.291956 -42.835209 -3.675311 -1.347067 -6.285521 0.000000 0.000000 0.000000 -8.172090 -3.073977 -2.329065 -42.634411 8.369848 28.869003 -29.423000 12.663345 11.649203 15.926380 12.951956 -28.545973 -4.676101 5.984784 0.100798 63.579056 -1.421592 11.957935 56.304836 19.668970 4.943443 -4.670741 -10.188887 -4.810727 -17.263697 -1.119390 -2.997418 27.352879 -4.679683 2.098286 -13.856261 1.045177 -4.295298 -24.940935 -26.263765 -13.781581 57.205097 1.147779 -8.362742 -8.341814 -1.219853 -4.951221 
-4.235794 40.620815 -2.763543 0.184019 -1.149691 -108.827469 9.138236 3.205169 -23.569050 -5.146780 -3.383487 -2.098084 0.000000 0.000000 0.000000 4.868978 8.581777 -39.437557 -3.226900 -1.662997 -2.368869 0.000000 0.000000 0.000000 -8.172090 -3.073977 -2.329065 -44.500149 8.291875 27.509987 -30.322617 8.746353 11.908414 16.088432 13.157364 -28.988960 -4.676101 5.984784 0.100798 63.554493 -12.509412 12.146650 55.688946 17.864437 5.373809 -4.676256 -10.182281 -5.281892 -16.998163 -0.002131 2.761031 27.236027 -6.447679 1.820649 -15.419598 -1.103450 -4.445266 -14.826332 -20.805998 -17.561663 56.069225 1.288170 -9.758931 -8.341814 -1.219853 -4.951221 
-4.242014 40.560360 -2.820822 0.164087 -1.245332 -118.444229 9.117876 3.201859 -23.655970 -5.075414 -3.214021 -1.783428 0.000000 0.000000 0.000000 5.176306 9.045881 -35.942596 -3.275787 -1.963150 2.443594 0.000000 0.000000 0.000000 -8.172090 -3.073977 -2.329065 -46.670593 7.857294 26.121243 -31.221508 4.448561 12.145399 16.244156 13.354751 -29.414648 -4.676101 5.984784 0.100798 63.286690 -24.376841 12.422374 52.595665 15.475234 6.217247 -4.766139 -10.062100 -5.757724 -15.573216 2.627385 11.408536 26.261089 -7.057468 1.781374 -15.967662 -3.445140 -4.675788 -1.796019 -14.695599 -22.531654 53.827545 3.778970 -9.831285 -8.341814 -1.219853 -4.951221 
-4.099305 40.719246 -2.916025 0.055861 -1.242908 -130.088043 9.118655 3.201996 -23.650986 -4.900179 -3.039166 -1.497919 0.000000 0.000000 0.000000 5.605110 9.703965 -32.381538 -3.906081 -2.236056 8.226776 0.000000 0.000000 0.000000 -8.172090 -3.073977 -2.329065 -49.014721 6.838611 25.050982 -32.100838 0.230344 12.269237 16.393297 13.543794 -29.822338 -4.676101 5.984784 0.100798 62.887142 -34.081593 12.709131 45.722118 13.012248 7.332957 -4.930878 -9.841127 -6.234890 -13.601088 5.348504 21.628374 24.528366 -6.702304 1.912036 -15.648743 -5.884957 -4.953795 5.149674 -12.481583 -25.689407 52.075581 6.981812 -9.997564 -8.341814 -1.219853 -4.951221 
-3.777765 41.202644 -2.917911 -0.071364 -0.983824 -141.923767 9.138203 3.205193 -23.564449 -4.613519 -2.860997 -1.242294 0.000000 0.000000 0.000000 6.088367 10.452201 -28.739948 -4.980740 -2.508066 14.825869 0.000000 0.000000 0.000000 -8.172090 -3.073977 -2.329065 -51.412674 5.087725 24.566511 -32.937000 -3.516388 12.214341 16.535601 13.724168 -30.211332 -4.676101 5.984784 0.100798 62.457245 -39.322491 12.944500 34.837189 10.868468 8.547441 -5.160965 -9.532146 -6.710056 -11.668056 6.978308 31.980165 22.329594 -5.628119 2.141917 -14.611129 -8.327963 -5.246218 -0.021542 -17.027361 -24.968714 51.762703 9.578411 -11.198708 -8.341814 -1.219853 -4.951221 
-3.202525 41.811001 -2.857615 -0.110295 -0.822805 -152.176880 9.174145 3.211063 -23.406702 -4.207877 -2.681592 -1.017292 0.000000 0.000000 0.000000 6.242572 10.692676 -24.820820 -5.478112 -2.956802 21.167200 0.000000 0.000000 0.000000 -8.172090 -3.073977 -2.329065 -53.789257 2.774105 24.611494 -33.687347 -6.673600 12.016496 16.670803 13.895545 -30.580921 -4.676101 5.984784 0.100798 62.057995 -40.362801 13.120264 23.996811 8.965277 9.556398 -5.446887 -9.147936 -7.179885 -10.256617 7.284823 40.528881 20.722307 -4.291580 2.391121 -13.003112 -10.679222 -5.519988 -11.469795 -24.453913 -22.047142 51.253685 11.530828 -12.468378 -8.341814 -1.219853 -4.951221 
-2.287471 42.268574 -2.806863 0.055861 -1.242908 -159.088043 9.224114 3.219219 -23.188103 -3.675700 -2.503028 -0.823652 0.000000 0.000000 0.000000 5.605110 9.703965 -20.381538 -4.155408 -3.797702 25.947363 0.000000 0.000000 0.000000 -8.172090 -3.073977 -2.329065 -56.080441 0.146630 25.048689 -34.304470 -9.191709 11.736824 16.798655 14.057603 -30.930412 -4.676101 5.984784 0.100798 61.740288 -38.106911 13.241760 18.328674 7.106161 10.022830 -5.779133 -8.701283 -7.641043 -9.823320 6.273802 45.215847 20.955505 -3.202033 2.577456 -10.972969 -12.843808 -5.742037 -20.387140 -29.196604 -19.538212 48.267185 13.121195 -12.363426 -8.341814 -1.219853 -4.951221 
-1.021690 42.374870 -2.818594 0.491718 -2.524255 -161.526947 9.285742 3.229275 -22.918997 -3.009427 -2.327380 -0.662108 0.000000 0.000000 0.000000 3.888736 7.077222 -15.354291 -0.362470 -5.087319 28.152529 0.000000 0.000000 0.000000 -8.172090 -3.073977 -2.329065 -58.222214 -2.545871 25.740852 -34.740982 -11.021175 11.436449 16.918901 14.210019 -31.259109 -4.676101 5.984784 0.100798 61.555016 -33.459171 13.314327 21.356356 5.205070 9.723643 -6.148196 -8.204966 -8.090201 -10.654137 4.046821 44.606964 23.570398 -2.669895 2.642929 -8.669010 -14.726761 -5.879294 -20.284441 -27.270945 -19.397837 41.294544 14.510530 -9.956103 -8.341814 -1.219853 -4.951221 
0.304991 42.230453 -2.870597 1.053194 -4.135266 -160.880035 9.356655 3.240843 -22.609735 -2.201505 -2.156725 -0.533399 0.000000 0.000000 0.000000 1.507747 3.653992 -10.370914 4.180241 -6.246602 27.926765 0.000000 0.000000 0.000000 -8.172090 -3.073977 -2.329065 -60.150543 -5.054521 26.550745 -34.949482 -12.112413 11.176497 17.031284 14.352468 -31.566311 -4.676101 5.984784 0.100798 61.553089 -27.323967 13.343303 30.187523 3.617960 8.891345 -6.544565 -7.671768 -8.524022 -12.352682 1.088656 39.766838 26.277035 -2.209789 2.626362 -6.239512 -16.233156 -5.898692 -13.946886 -21.012573 -20.951771 31.918015 15.375254 -6.380253 -8.341814 -1.219853 -4.951221 
1.327553 42.011147 -2.921873 1.544035 -5.341432 -159.162781 9.434484 3.253537 -22.270668 -1.244377 -1.993141 -0.438264 0.000000 0.000000 0.000000 -0.948175 0.588416 -6.238115 7.159606 -6.537607 25.703669 0.000000 0.000000 0.000000 -8.172090 -3.073977 -2.329065 -61.801403 -7.130457 27.341125 -34.882561 -12.415851 11.018090 17.135548 14.484624 -31.851315 -4.676101 5.984784 0.100798 61.785404 -20.605667 13.334021 40.325760 2.811263 7.872349 -6.958728 -7.114472 -8.939172 -14.351997 -2.020110 32.384686 26.077690 -1.137400 2.590776 -3.832764 -17.268059 -5.767160 -6.478362 -14.337226 -22.868183 22.492563 15.270656 -3.285122 -8.341814 -1.219853 -4.951221 
1.769623 41.860561 -2.939949 1.810910 -5.580479 -158.019989 9.516861 3.266971 -21.912148 -0.140041 -1.838559 -0.376452 0.000000 0.000000 0.000000 -2.942133 -1.185156 -3.590088 6.861331 -5.461686 21.981691 0.000000 0.000000 0.000000 -8.172090 -3.073977 -2.329065 -63.110767 -8.524817 27.974751 -34.492825 -11.881921 11.022356 17.231436 14.606167 -32.113430 -4.676101 5.984784 0.100798 62.302872 -14.208657 13.291821 47.943062 3.027059 7.006991 -7.381176 -6.545862 -9.332318 -16.085121 -4.698895 24.149721 21.008854 0.968408 2.568624 -1.597053 -17.736528 -5.451632 -1.985314 -10.331509 -24.067856 15.065518 13.987393 -1.917342 -8.341814 -1.219853 -4.951221 
1.709413 41.793468 -2.926470 1.872205 -4.979070 -157.613434 9.601414 3.280757 -21.544523 1.071289 -1.694334 -0.343767 0.000000 0.000000 0.000000 -4.148357 -1.611529 -2.370989 3.966392 -3.477373 17.518677 0.000000 0.000000 0.000000 -8.172090 -3.073977 -2.329065 -64.014610 -8.988739 28.314379 -33.732876 -10.461056 11.250421 17.318693 14.716770 -32.351952 -4.676101 5.984784 0.100798 63.156391 -9.037318 13.222041 51.885052 3.610014 6.611312 -7.802399 -5.978721 -9.700127 -16.985092 -6.367115 16.751154 13.243907 3.476055 2.470089 0.319332 -17.543629 -4.919036 -0.584426 -8.765497 -24.482004 10.453710 12.257612 -1.913092 -8.341814 -1.219853 -4.951221 
1.313781 41.792427 -2.891608 1.789233 -3.836104 -157.734100 9.685772 3.294509 -21.178148 2.339838 -1.561676 -0.335023 0.000000 0.000000 0.000000 -4.293864 -0.855305 -2.352459 -0.245392 -1.282511 13.137335 0.000000 0.000000 0.000000 -8.172090 -3.073977 -2.329065 -64.448898 -8.273368 28.222773 -32.555321 -8.103700 11.763404 17.397062 14.816109 -32.566181 -4.676101 5.984784 0.100798 64.396851 -5.996037 13.130020 51.665779 3.680442 6.995271 -8.212883 -5.425833 -10.039261 -16.484947 -6.444188 11.878197 5.990454 5.490783 2.174787 1.768104 -16.594423 -4.136304 -1.394937 -8.580134 -24.294443 9.166338 11.048829 -2.505935 -8.341814 -1.219853 -4.951221 
0.749587 41.839993 -2.845535 1.623307 -2.450480 -158.173019 9.767566 3.307840 -20.823368 3.615854 -1.441795 -0.345037 0.000000 0.000000 0.000000 -3.105669 0.918930 -3.306145 -4.494280 0.425096 9.660308 0.000000 0.000000 0.000000 -8.172090 -3.073977 -2.329065 -64.349625 -6.129836 27.562695 -31.306566 -5.142205 12.463576 17.466290 14.903860 -32.755424 -4.676101 5.984784 0.100798 65.827545 -5.596478 13.037675 47.649544 2.917799 8.159735 -8.603124 -4.899974 -10.346392 -14.310453 -4.627918 10.515056 1.788858 6.321067 1.599553 2.646513 -14.857052 -3.094503 -3.525861 -8.817113 -23.703770 11.247473 10.978638 -3.065535 -8.341814 -1.219853 -4.951221 
0.183688 41.918732 -2.798423 1.435739 -1.121097 -158.721237 9.844424 3.320362 -20.490532 4.849561 -1.335901 -0.368623 0.000000 0.000000 0.000000 -0.310782 3.546582 -5.003695 -7.500455 0.947605 7.910316 0.000000 0.000000 0.000000 -8.172090 -3.073977 -2.329065 -63.652763 -2.309280 26.196899 -31.908260 -3.436755 12.617756 17.526117 14.979698 -32.918980 -4.676101 5.984784 0.100798 66.261124 -6.779672 13.033245 43.601700 3.238103 8.869169 -8.963607 -4.413931 -10.618182 -11.358281 -1.729649 10.825912 0.510508 6.088319 0.810094 3.033959 -12.551962 -1.881242 -6.045218 -8.921110 -22.967659 14.880732 11.265038 -3.505877 -8.341814 -1.219853 -4.951221 
-0.217056 42.011204 -2.760444 1.287842 -0.146852 -159.169769 9.913978 3.331690 -20.189993 5.991191 -1.245204 -0.400598 0.000000 0.000000 0.000000 4.363784 6.863054 -7.216753 -7.984121 -0.412815 8.710049 0.000000 0.000000 0.000000 -8.172090 -3.073977 -2.329065 -62.294270 3.437162 23.988150 -36.675854 -5.229468 11.333905 17.576290 15.043299 -33.056145 -4.676101 5.984784 0.100798 64.262650 -8.093953 13.221556 44.137897 7.116513 7.578941 -9.284822 -3.980485 -10.851298 -8.817822 1.160888 10.269943 1.359551 5.117184 -0.090661 3.055382 -9.962677 -0.608267 -8.010786 -8.437548 -22.358562 17.784594 10.776114 -3.877036 -8.341814 -1.219853 -4.951221 
-0.334619 42.101482 -2.739116 1.224813 0.261362 -159.362457 9.973855 3.341436 -19.932096 6.990976 -1.170915 -0.435775 0.000000 0.000000 0.000000 10.876679 10.626033 -9.689896 -5.194862 -3.992405 12.441777 0.000000 0.000000 0.000000 -8.172090 -3.073977 -2.329065 -60.307625 11.026815 20.945906 -46.900345 -11.867311 8.090339 17.616552 15.094337 -33.166214 -4.676101 5.984784 0.100798 59.001965 -8.415820 13.661186 52.313633 16.032244 3.326640 -9.557260 -3.612420 -11.042405 -7.590896 3.175433 7.026644 3.540134 3.732306 -0.999786 2.835723 -7.372721 0.612679 -8.715106 -7.084243 -22.080893 18.259201 8.738796 -4.215896 -8.341814 -1.219853 -4.951221 
-0.246293 42.179729 -2.731345 1.227390 0.244676 -159.354568 10.021687 3.349215 -19.727200 7.799144 -1.114245 -0.468972 0.000000 0.000000 0.000000 17.929171 14.282305 -12.059405 -0.499803 -8.681019 17.726053 0.000000 0.000000 0.000000 -8.172090 -3.073977 -2.329065 -58.116367 19.050812 17.666494 -59.774864 -21.116583 3.846813 17.646648 15.132488 -33.248493 -4.676101 5.984784 0.100798 52.068241 -7.934453 14.225770 64.943840 27.480654 -2.521210 -9.771408 -3.322520 -11.188169 -7.429032 4.331601 2.156824 6.256401 2.258330 -1.814354 2.499920 -5.065617 1.669849 -8.389799 -5.268628 -22.066940 16.931366 5.815426 -4.506587 -8.341814 -1.219853 -4.951221 
